<svg width="90" height="90" xmlns="http://www.w3.org/2000/svg"><g fill="none" fill-rule="evenodd"><path fill="#CCC" d="M0 0h90v90H0z"/><path fill="#222" d="M3 3h26v26H3zM32 3h26v26H32zM61 3h26v26H61zM3 32h26v26H3zM32 32h26v26H32zM61 32h26v26H61zM3 61h26v26H3zM32 61h26v26H32zM61 61h26v26H61z"/><path fill="#CCC" d="M21.57 39.893l-7.39 10.214h7.03v2.733H10.553v-2.733l7.277-10.214h-4.743v1.366H10.44V37.16h11.13zM68.43 50.107l7.39-10.214h-7.39V37.16h11.13v2.733l-7.39 10.214h4.743v-1.366h2.647v4.099H68.43z"/><g fill="#CCC"><path d="M10.852 9.16h2.816v15.68h-2.816z"/><path d="M12.653 17.015v2.816h4.034c2.802 0 5.028-2.419 5.028-5.351s-2.226-5.351-5.028-5.351h-4.034v2.816h4.034c1.205 0 2.228 1.112 2.228 2.535s-1.023 2.535-2.228 2.535h-4.034z" fill-rule="nonzero"/></g><path d="M47.82 9.72h2.815v10.455c0 2.916-2.55 5.225-5.632 5.225-3.083 0-5.633-2.309-5.633-5.225V9.72h2.816v10.455c0 1.309 1.233 2.425 2.817 2.425 1.583 0 2.816-1.116 2.816-2.425V9.72z" fill-rule="nonzero" fill="#CCC"/><path d="M79.212 11.893l-7.39 10.214h7.03v2.733H68.194v-2.733l7.278-10.214h-4.743v1.366h-2.647V9.16h11.13zM10.44 78.107l7.39-10.214h-7.39V65.16h11.13v2.733l-7.39 10.214h4.743v-1.366h2.647v4.099H10.44zM47.39 76.696h2.794v4.144H39.82V65.16h3.087v12.947h4.483zM68.9 65.72h10.173v2.733h-7.368v3.651h7.368v2.733h-7.368v3.83h7.368V81.4H68.9zM58.081 29.797l2.122 2.122-28.284 28.284-2.122-2.122z" fill="#CCC"/></g></svg>